<svg xmlns="http://www.w3.org/2000/svg" viewBox="0 0 32 32">
  <rect width="32" height="32" rx="7" fill="#0f172a"/>
  <path d="M16 5 C11 5 8 8 8 12 L8 14 C6.5 14 6 15 6 16 L6 26 C6 27 7 28 8 28 L24 28 C25 28 26 27 26 26 L26 16 C26 15 25.5 14 24 14 L24 12 C24 8 21 5 16 5 Z M16 8 C19.3 8 21 10 21 12 L21 14 L11 14 L11 12 C11 10 12.7 8 16 8 Z" fill="#22d3ee"/>
  <text x="16" y="24" text-anchor="middle" font-family="Roboto,Arial,sans-serif" font-size="7" font-weight="700" fill="#0f172a">SS</text>
</svg>
